<svg xmlns="http://www.w3.org/2000/svg" xmlns:xlink="http://www.w3.org/1999/xlink" id="Layer_1" x="0" y="0" enable-background="new 0 0 240 240" version="1.1" viewBox="0 0 240 240" xml:space="preserve"><polygon fill="#00A5E9" points="120 28.8 120 28.8 120 28.8 30.6 60.7 44.3 178.8 120 220.8 120 220.8 120 220.8 195.7 178.8 209.4 60.7"/><polygon fill="#018BD1" points="120 28.8 120 50.1 120 50 120 147.3 120 147.3 120 220.8 120 220.8 195.7 178.8 209.4 60.7"/><path fill="#FFF" d="M120,50L64.1,175.3l0,0H85l0,0l11.2-28h47.4l11.2,28l0,0h20.8l0,0L120,50L120,50L120,50L120,50L120,50z M136.3,130h-32.6L120,90.7L136.3,130z"/></svg>